{
    "asset" : {
        "generator" : "Khronos glTF Blender I/O v0.9.28",
        "version" : "2.0"
    },
    "scene" : 0,
    "scenes" : [
        {
            "name" : "Scene",
            "nodes" : [
                0,
                2,
                3,
                4,
                5
            ]
        }
    ],
    "nodes" : [
        {
            "mesh" : 0,
            "name" : "Light",
            "rotation" : [
                0,
                -0.7071067690849304,
                0.7071067690849304,
                -3.0908619663705394e-08
            ],
            "translation" : [
                -278,
                547.7999877929688,
                -279.5
            ]
        },
        {
            "camera" : 0,
            "name" : "Camera_Orientation",
            "rotation" : [
                -0.7071067690849304,
                0,
                0,
                0.7071067690849304
            ]
        },
        {
            "children" : [
                1
            ],
            "name" : "Camera",
            "rotation" : [
                -0.7071067690849304,
                0,
                0,
                -0.7071068286895752
            ],
            "translation" : [
                -277.99993896484375,
                273,
                800
            ]
        },
        {
            "mesh" : 1,
            "name" : "large_box",
            "rotation" : [
                0.41943976283073425,
                0.5692716240882874,
                -0.5692717432975769,
                0.41943982243537903
            ],
            "scale" : [
                165,
                165,
                330
            ],
            "translation" : [
                -368.0000305175781,
                165.00003051757812,
                -351
            ]
        },
        {
            "mesh" : 2,
            "name" : "small_box",
            "rotation" : [
                -0.10217302292585373,
                -0.6996861696243286,
                0.6996861100196838,
                -0.10217300057411194
            ],
            "scale" : [
                82.50000762939453,
                82.50000762939453,
                82.50000762939453
            ],
            "translation" : [
                -185.00001525878906,
                82.50001525878906,
                -169
            ]
        },
        {
            "mesh" : 3,
            "name" : "cornell_box",
            "rotation" : [
                0,
                -0.7071068286895752,
                0.7071067690849304,
                5.338507946817117e-08
            ]
        }
    ],
    "cameras" : [
        {
            "name" : "Camera",
            "perspective" : {
                "yfov" : 0.683230996131897,
                "zfar" : 1500,
                "znear" : 0.10000000149011612
            },
            "type" : "perspective"
        }
    ],
    "materials" : [
        {
            "doubleSided" : true,
            "emissiveFactor" : [
                1,
                1,
                1
            ],
            "name" : "Emitter",
            "pbrMetallicRoughness" : {}
        },
        {
            "doubleSided" : true,
            "name" : "box_Material",
            "pbrMetallicRoughness" : {
                "baseColorFactor" : [
                    0.5028864741325378,
                    0.5028864741325378,
                    0.5028864741325378,
                    1
                ],
                "metallicFactor" : 0,
                "roughnessFactor" : 0.5
            }
        },
        {
            "doubleSided" : true,
            "name" : "cbox_Material",
            "pbrMetallicRoughness" : {
                "baseColorFactor" : [
                    0.40197786688804626,
                    0.40197786688804626,
                    0.40197786688804626,
                    1
                ],
                "metallicFactor" : 0,
                "roughnessFactor" : 0.5
            }
        },
        {
            "doubleSided" : true,
            "name" : "cbox_red",
            "pbrMetallicRoughness" : {
                "baseColorFactor" : [
                    0.5028864741325378,
                    0,
                    0,
                    1
                ],
                "metallicFactor" : 0,
                "roughnessFactor" : 0.5
            }
        },
        {
            "doubleSided" : true,
            "name" : "cbox_green",
            "pbrMetallicRoughness" : {
                "baseColorFactor" : [
                    0,
                    0.5028864741325378,
                    0,
                    1
                ],
                "metallicFactor" : 0,
                "roughnessFactor" : 0.5
            }
        }
    ],
    "meshes" : [
        {
            "name" : "Light",
            "primitives" : [
                {
                    "attributes" : {
                        "POSITION" : 0,
                        "NORMAL" : 1
                    },
                    "indices" : 2,
                    "material" : 0
                }
            ]
        },
        {
            "name" : "large_box",
            "primitives" : [
                {
                    "attributes" : {
                        "POSITION" : 3,
                        "NORMAL" : 4
                    },
                    "indices" : 5,
                    "material" : 1
                }
            ]
        },
        {
            "name" : "small_box",
            "primitives" : [
                {
                    "attributes" : {
                        "POSITION" : 6,
                        "NORMAL" : 7
                    },
                    "indices" : 5,
                    "material" : 1
                }
            ]
        },
        {
            "name" : "cornell_box",
            "primitives" : [
                {
                    "attributes" : {
                        "POSITION" : 8,
                        "NORMAL" : 9
                    },
                    "indices" : 10,
                    "material" : 2
                },
                {
                    "attributes" : {
                        "POSITION" : 11,
                        "NORMAL" : 12
                    },
                    "indices" : 2,
                    "material" : 3
                },
                {
                    "attributes" : {
                        "POSITION" : 13,
                        "NORMAL" : 14
                    },
                    "indices" : 2,
                    "material" : 4
                }
            ]
        }
    ],
    "accessors" : [
        {
            "bufferView" : 0,
            "componentType" : 5126,
            "count" : 4,
            "max" : [
                65,
                52.5,
                0
            ],
            "min" : [
                -65.00001525878906,
                -52.5,
                0
            ],
            "type" : "VEC3"
        },
        {
            "bufferView" : 1,
            "componentType" : 5126,
            "count" : 4,
            "type" : "VEC3"
        },
        {
            "bufferView" : 2,
            "componentType" : 5123,
            "count" : 6,
            "type" : "SCALAR"
        },
        {
            "bufferView" : 3,
            "componentType" : 5126,
            "count" : 24,
            "max" : [
                0.5,
                0.5,
                0.5
            ],
            "min" : [
                -0.5,
                -0.5,
                -0.5
            ],
            "type" : "VEC3"
        },
        {
            "bufferView" : 4,
            "componentType" : 5126,
            "count" : 24,
            "type" : "VEC3"
        },
        {
            "bufferView" : 5,
            "componentType" : 5123,
            "count" : 36,
            "type" : "SCALAR"
        },
        {
            "bufferView" : 6,
            "componentType" : 5126,
            "count" : 24,
            "max" : [
                1,
                1,
                1
            ],
            "min" : [
                -1,
                -1,
                -1
            ],
            "type" : "VEC3"
        },
        {
            "bufferView" : 7,
            "componentType" : 5126,
            "count" : 24,
            "type" : "VEC3"
        },
        {
            "bufferView" : 8,
            "componentType" : 5126,
            "count" : 12,
            "max" : [
                556,
                559.2000122070312,
                0
            ],
            "min" : [
                0,
                0,
                -548.7999877929688
            ],
            "type" : "VEC3"
        },
        {
            "bufferView" : 9,
            "componentType" : 5126,
            "count" : 12,
            "type" : "VEC3"
        },
        {
            "bufferView" : 10,
            "componentType" : 5123,
            "count" : 18,
            "type" : "SCALAR"
        },
        {
            "bufferView" : 11,
            "componentType" : 5126,
            "count" : 4,
            "max" : [
                556,
                559.2000122070312,
                0
            ],
            "min" : [
                549.5999755859375,
                0,
                -548.7999877929688
            ],
            "type" : "VEC3"
        },
        {
            "bufferView" : 12,
            "componentType" : 5126,
            "count" : 4,
            "type" : "VEC3"
        },
        {
            "bufferView" : 13,
            "componentType" : 5126,
            "count" : 4,
            "max" : [
                0,
                559.2000122070312,
                0
            ],
            "min" : [
                0,
                0,
                -548.7999877929688
            ],
            "type" : "VEC3"
        },
        {
            "bufferView" : 14,
            "componentType" : 5126,
            "count" : 4,
            "type" : "VEC3"
        }
    ],
    "bufferViews" : [
        {
            "buffer" : 0,
            "byteLength" : 48,
            "byteOffset" : 0
        },
        {
            "buffer" : 0,
            "byteLength" : 48,
            "byteOffset" : 48
        },
        {
            "buffer" : 0,
            "byteLength" : 12,
            "byteOffset" : 96
        },
        {
            "buffer" : 0,
            "byteLength" : 288,
            "byteOffset" : 108
        },
        {
            "buffer" : 0,
            "byteLength" : 288,
            "byteOffset" : 396
        },
        {
            "buffer" : 0,
            "byteLength" : 72,
            "byteOffset" : 684
        },
        {
            "buffer" : 0,
            "byteLength" : 288,
            "byteOffset" : 756
        },
        {
            "buffer" : 0,
            "byteLength" : 288,
            "byteOffset" : 1044
        },
        {
            "buffer" : 0,
            "byteLength" : 144,
            "byteOffset" : 1332
        },
        {
            "buffer" : 0,
            "byteLength" : 144,
            "byteOffset" : 1476
        },
        {
            "buffer" : 0,
            "byteLength" : 36,
            "byteOffset" : 1620
        },
        {
            "buffer" : 0,
            "byteLength" : 48,
            "byteOffset" : 1656
        },
        {
            "buffer" : 0,
            "byteLength" : 48,
            "byteOffset" : 1704
        },
        {
            "buffer" : 0,
            "byteLength" : 48,
            "byteOffset" : 1752
        },
        {
            "buffer" : 0,
            "byteLength" : 48,
            "byteOffset" : 1800
        }
    ],
    "buffers" : [
        {
            "byteLength" : 1848,
            "uri" : "data:application/octet-stream;base64,"
        }
    ]
}
